<?xml version="1.0" encoding="utf-8"?>
<!-- Generator: Adobe Illustrator 16.0.0, SVG Export Plug-In . SVG Version: 6.00 Build 0)  -->
<!DOCTYPE svg PUBLIC "-//W3C//DTD SVG 1.1//EN" "http://www.w3.org/Graphics/SVG/1.1/DTD/svg11.dtd">
<svg version="1.1" id="레이어_1" xmlns="http://www.w3.org/2000/svg" xmlns:xlink="http://www.w3.org/1999/xlink" x="0px"
	 y="0px" width="835.89px" height="91px" viewBox="0 0 835.89 91" enable-background="new 0 0 835.89 91" xml:space="preserve">
<path fill="#5192FF" d="M112.654,17.089c-15.596-6.547-34.309-9.865-51.332-9.865c-17.022,0-35.735,3.318-51.333,9.865
	c-1.018,0.501-1.508,0.951-1.508,2.103v52.824c0,1.152,0.49,1.601,1.508,2.104c15.597,6.548,34.31,9.869,51.333,9.869
	c17.023,0,35.736-3.321,51.332-9.869c1.017-0.503,1.51-0.951,1.51-2.104V19.192C114.164,18.04,113.67,17.59,112.654,17.089z
	 M97.258,17.929c0.516-1.878,2.101-2.851,3.847-2.37c0.479,0.136,0.868,0.335,1.185,0.62l0.022,0.017l-0.334,0.93l-0.046-0.054
	c-0.28-0.318-0.628-0.534-1.026-0.647c-0.556-0.15-1.097-0.092-1.568,0.177c-0.554,0.313-0.964,0.881-1.167,1.61
	c-0.203,0.721-0.14,1.427,0.173,1.985c0.269,0.465,0.696,0.801,1.214,0.945c0.356,0.099,0.921,0.146,1.263,0.035l0.068-0.026
	l-0.213,0.966l-0.026,0.007c-0.367,0.061-0.804,0.017-1.339-0.13C97.517,21.495,96.708,19.902,97.258,17.929z M89.79,12.996
	l0.012-0.038l0.888,0.176l-1.274,6.332l-0.888-0.175L89.79,12.996z M79.3,11.313l0.006-0.04l0.897,0.121
	c0,0-0.719,5.441-0.728,5.522c0.081,0.008,2.381,0.314,2.381,0.314l-0.116,0.878l-3.279-0.434L79.3,11.313z M65.956,13.46
	c0.053-1.08,0.431-1.979,1.059-2.549c0.509-0.458,1.169-0.683,1.91-0.644c1.674,0.086,2.732,1.485,2.629,3.479
	c-0.056,1.089-0.43,1.994-1.047,2.553c-0.507,0.457-1.176,0.677-1.925,0.638c-0.755-0.039-1.394-0.326-1.853-0.834
	C66.17,15.484,65.896,14.544,65.956,13.46z M54.828,10.302c0,0,0.086,2.587,0.088,2.667c0.082,0,2.579-0.084,2.662-0.088
	c-0.004-0.082-0.087-2.667-0.087-2.667l0.861-0.028l0.042-0.002l0.214,6.456l-0.905,0.032c0,0-0.093-2.822-0.096-2.904
	c-0.08,0.004-2.582,0.087-2.664,0.088c0.003,0.082,0.099,2.903,0.099,2.903l-0.903,0.032l-0.217-6.455L54.828,10.302z
	 M53.107,19.229c2.894-0.171,5.679-0.258,8.237-0.258c12.241,0,29.633,1.968,40.371,5.77H53.107V19.229z M53.107,27.686h51.123
	c0.006,0.122,0.012,0.241,0.016,0.349v1.457h-45.55v12.457h20.966v1.803H53.107V27.686z M61.642,39.001v-1.808h42.604v1.808H61.642z
	 M104.246,41.948v1.803H82.605v-1.803H104.246z M61.642,34.246v-1.807h42.604v1.807H61.642z M79.662,46.7v11.312h-36.3v-1.805H73.36
	v-7.702H43.362V24.713H21.04c7.739-2.726,18.91-4.503,29.119-5.284V46.7H79.662z M46.583,10.871l0.044-0.004l0.098,0.878
	c0,0-1.691,0.195-1.771,0.204c0.009,0.08,0.625,5.534,0.625,5.534l-0.902,0.103c0,0-0.614-5.457-0.621-5.538
	c-0.083,0.008-1.775,0.201-1.775,0.201l-0.1-0.883L46.583,10.871z M32.923,12.877l0.878-0.167l0.029-0.008l3.625,5.88l-0.963,0.187
	c0,0-0.85-1.42-0.88-1.468c-0.055,0.012-2.65,0.509-2.706,0.517c-0.006,0.057-0.27,1.69-0.27,1.69l-0.934,0.179L32.923,12.877z
	 M20.71,16.59c0.383-0.688,1.02-1.17,1.832-1.402c0.476-0.133,0.914-0.162,1.336-0.084l0.025,0.004l0.196,0.971l-0.066-0.022
	c-0.401-0.129-0.809-0.137-1.213-0.024c-0.554,0.157-0.983,0.489-1.249,0.96c-0.313,0.555-0.371,1.257-0.165,1.986
	c0.384,1.368,1.523,2.116,2.707,1.785c0.355-0.102,0.866-0.356,1.094-0.624l0.046-0.055l0.322,0.937l-0.02,0.018
	c-0.28,0.237-0.69,0.436-1.217,0.583c-0.823,0.229-1.613,0.155-2.282-0.218c-0.75-0.42-1.29-1.18-1.577-2.194
	C20.21,18.259,20.296,17.331,20.71,16.59z M18.445,28.034c0.002-0.116,0.005-0.242,0.015-0.373h21.955v20.844H18.445V28.034z
	 M18.445,51.454h51.969v1.807h-30v7.701h42.19V46.7h21.641v15.064c-0.012,0.603-0.088,1.534-0.506,2.078
	c-0.345,0.455-0.822,0.736-1.139,0.89c-5.358,2.012-12.562,3.535-19.995,4.56v-6.526H18.536c-0.063-0.357-0.085-0.716-0.091-1.001
	V51.454z M79.662,65.712v3.951c-6.43,0.77-12.881,1.158-18.317,1.158c-11.505,0-27.541-1.743-38.367-5.109H79.662z M18.068,74.083
	c-0.607-0.206-1.039-0.563-1.277-1.049c-0.297-0.609-0.286-1.389,0.038-2.325l1.212-3.534l0.012-0.04l0.859,0.292l-1.188,3.465
	c-0.269,0.775-0.301,1.351-0.103,1.758c0.137,0.279,0.377,0.47,0.738,0.597c0.351,0.119,0.667,0.114,0.944-0.019
	c0.404-0.2,0.732-0.674,1.001-1.452l1.188-3.459l0.854,0.295l-1.225,3.57C20.541,73.885,19.453,74.563,18.068,74.083z
	 M25.242,76.214c0,0-0.966-5.397-1.01-5.648c-0.077,0.255-1.435,4.938-1.435,4.938l-0.868-0.253l1.79-6.163l0.008-0.038l1.139,0.329
	c0,0,0.937,5.254,0.98,5.52c0.076-0.265,1.403-4.828,1.403-4.828l0.868,0.253l-1.798,6.203L25.242,76.214z M28.993,77.202
	l-0.878-0.222l1.578-6.224l0.008-0.038l0.877,0.222L28.993,77.202z M32.21,77.961l-0.755-6.719l-0.004-0.061l0.983,0.216
	c0,0,0.513,5.555,0.536,5.752c0.097-0.171,2.925-4.994,2.925-4.994l0.93,0.204l-3.551,5.835L32.21,77.961z M40.794,73.949
	c0,0-2.278-0.401-2.356-0.413c-0.015,0.076-0.299,1.676-0.311,1.752c0.083,0.015,2.145,0.378,2.145,0.378l-0.152,0.873
	c0,0-2.063-0.361-2.143-0.375c-0.017,0.075-0.338,1.908-0.353,1.984c0.079,0.015,2.354,0.417,2.354,0.417l-0.152,0.872l-3.249-0.57
	l1.113-6.324l0.009-0.038l3.246,0.572L40.794,73.949z M45.646,75.527c-0.097,0.724-0.637,1.229-1.336,1.298
	c0.207,0.146,0.314,0.311,0.428,0.692l0.752,2.724l-1.021-0.137l-0.577-2.339c-0.163-0.623-0.402-0.654-0.836-0.711
	c0,0-0.376-0.054-0.447-0.064c-0.011,0.081-0.384,2.807-0.384,2.807l-0.894-0.124l0.865-6.357l0.007-0.038l1.434,0.193
	c0.652,0.091,1.368,0.248,1.754,0.758c0.189,0.243,0.283,0.555,0.283,0.93C45.673,75.275,45.664,75.396,45.646,75.527z
	 M48.633,76.688c0.658,0.445,1.413,0.948,1.289,2.16c-0.121,1.229-0.968,1.854-2.317,1.719c-0.416-0.039-0.801-0.212-1.16-0.383
	l-0.024-0.015l0.181-0.927l0.05,0.028c0.152,0.091,0.675,0.379,1.136,0.423c0.245,0.027,0.589-0.023,0.85-0.238
	c0.193-0.16,0.303-0.375,0.332-0.646c0.063-0.624-0.396-0.932-0.937-1.282c-0.624-0.411-1.327-0.872-1.215-1.963
	c0.104-1.075,0.91-1.695,2.046-1.586c0.413,0.044,0.853,0.173,1.211,0.355l0.029,0.016l-0.217,0.911l-0.047-0.026
	c-0.398-0.224-0.618-0.326-1.027-0.368c-0.19-0.019-0.538-0.019-0.78,0.179c-0.155,0.121-0.237,0.3-0.259,0.529
	C47.719,76.08,48.143,76.362,48.633,76.688z M52.015,80.84l-0.899-0.066l0.468-6.399l0.001-0.041l0.906,0.067L52.015,80.84z
	 M57.925,75.571c0,0-1.702-0.08-1.781-0.08c-0.008,0.08-0.25,5.565-0.25,5.565l-0.902-0.042c0,0,0.244-5.484,0.249-5.564
	c-0.079-0.006-1.786-0.08-1.786-0.08l0.039-0.844l0.003-0.043l4.469,0.2L57.925,75.571z M64.013,74.783c0,0-2.229,3.687-2.233,3.68
	l-0.008,2.71h-0.906c0,0,0.006-2.674,0.006-2.7c-0.009-0.018-2.229-3.701-2.229-3.701l-0.041-0.064l1.059,0.003
	c0,0,1.614,2.706,1.678,2.823c0.071-0.119,1.652-2.818,1.652-2.818l1.06,0.004L64.013,74.783z M71.554,80.191
	c-0.454,0.512-1.09,0.804-1.844,0.849c-1.703,0.104-2.874-1.141-2.996-3.167c-0.118-1.993,0.925-3.401,2.599-3.5
	c1.675-0.098,2.881,1.176,2.999,3.168C72.378,78.625,72.106,79.568,71.554,80.191z M74.78,80.532l-0.902,0.092l-0.646-6.426
	l3.075-0.313l0.038-0.004l0.089,0.883c0,0-2.137,0.219-2.213,0.225c0.005,0.078,0.171,1.695,0.179,1.772
	c0.079-0.007,2.116-0.214,2.116-0.214l0.087,0.884c0,0-2.035,0.205-2.116,0.211C74.496,77.723,74.78,80.532,74.78,80.532z
	 M85,79.165c0,0-1.185,0.185-1.22,0.174c0,0-2.754-2.469-2.918-2.614c0.037,0.212,0.471,3.011,0.471,3.011l-0.895,0.142l-0.99-6.383
	l0.891-0.137c0,0,0.388,2.496,0.419,2.7c0.288-0.455,1.932-3.056,1.961-3.075l1.08-0.167l0.092-0.015c0,0-2.194,3.383-2.23,3.438
	c0.055,0.05,3.435,2.913,3.435,2.913L85,79.165z M88.115,78.668c-1.668,0.333-3.004-0.736-3.403-2.725
	c-0.391-1.959,0.447-3.496,2.09-3.827c1.645-0.328,3.014,0.767,3.409,2.727C90.605,76.83,89.785,78.332,88.115,78.668z
	 M95.285,76.916l-1.403-1.954c-0.38-0.522-0.616-0.462-1.041-0.359c0,0-0.374,0.094-0.437,0.112c0.02,0.077,0.68,2.747,0.68,2.747
	L92.21,77.68l-1.563-6.269l1.409-0.346c0.638-0.161,1.366-0.278,1.908,0.051c0.351,0.211,0.584,0.575,0.721,1.115
	c0.032,0.136,0.047,0.269,0.047,0.395c0,0.556-0.299,1.042-0.804,1.305c0.239,0.054,0.4,0.174,0.651,0.483l1.701,2.255
	L95.285,76.916z M97.527,76.319l-1.802-6.204l3.126-0.908l0.042-0.012l0.246,0.85c0,0-2.22,0.646-2.295,0.669
	c0.019,0.076,0.472,1.636,0.494,1.71c0.076-0.021,2.092-0.607,2.092-0.607l0.25,0.852c0,0-2.018,0.586-2.094,0.609
	c0.02,0.072,0.541,1.859,0.562,1.935c0.08-0.02,2.296-0.665,2.296-0.665l0.249,0.848L97.527,76.319z M106.133,73.611
	c0,0-1.031-1.297-1.068-1.34c-0.051,0.02-2.558,0.863-2.609,0.884c-0.004,0.055-0.038,1.707-0.038,1.707l-0.903,0.305l0.288-6.911
	l0.847-0.287l0.028-0.01l4.39,5.338L106.133,73.611z M68.625,16.051c0.471,0.027,0.876-0.113,1.201-0.407
	c0.449-0.406,0.73-1.115,0.773-1.948c0.041-0.826-0.172-1.563-0.592-2.022c-0.292-0.325-0.675-0.499-1.128-0.522
	c-0.455-0.025-0.85,0.111-1.176,0.403c-0.462,0.413-0.758,1.124-0.794,1.954C66.846,14.64,67.263,15.981,68.625,16.051z
	 M102.47,72.271c0.101-0.033,1.948-0.659,2.05-0.692c-0.07-0.087-1.851-2.328-1.983-2.493
	C102.532,69.295,102.47,72.163,102.47,72.271z M116.76,16.006c-0.503-0.768-1.219-1.21-1.624-1.411
	C99.323,7.785,79.644,3.995,61.332,3.995c-18.318,0-37.996,3.791-53.811,10.601c-0.401,0.201-1.114,0.643-1.622,1.411
	c-0.547,0.83-0.651,2.253-0.664,3.166v52.854c0.013,0.915,0.117,2.335,0.664,3.168c0.457,0.693,1.093,1.125,1.507,1.352
	C23.252,83.39,42.97,87.199,61.332,87.199c18.355,0,38.076-3.81,53.917-10.653c0.416-0.227,1.052-0.658,1.511-1.352
	c0.548-0.833,0.651-2.253,0.663-3.168V19.172C117.411,18.259,117.308,16.836,116.76,16.006z M115.276,72.052
	c0,1.119-0.125,1.416-0.297,1.807c-0.242,0.575-0.919,0.929-0.919,0.929c-15.651,6.901-35.193,10.334-52.728,10.334
	c-17.538,0-37.08-3.433-52.733-10.334c0,0-0.677-0.354-0.92-0.929c-0.17-0.391-0.3-0.688-0.3-1.807V19.207
	c0-1.118,0.13-1.417,0.3-1.809c0.243-0.575,0.92-0.929,0.92-0.929C24.252,9.57,43.793,6.134,61.332,6.134
	c17.535,0,37.077,3.436,52.728,10.335c0,0,0.678,0.354,0.919,0.929c0.172,0.392,0.297,0.69,0.297,1.809V72.052z M70.549,75.651
	c-0.328-0.291-0.725-0.423-1.184-0.39c-0.456,0.022-0.83,0.199-1.125,0.525c-0.414,0.464-0.625,1.203-0.575,2.029
	c0.05,0.831,0.338,1.544,0.791,1.942c0.325,0.292,0.733,0.426,1.201,0.396c0.47-0.027,0.856-0.208,1.145-0.534
	c0.404-0.455,0.607-1.189,0.558-2.021C71.309,76.768,71.016,76.061,70.549,75.651z M43.72,74.379c0,0-0.669-0.093-0.743-0.101
	c-0.009,0.072-0.238,1.758-0.249,1.836c0.074,0.009,0.652,0.088,0.652,0.088c0.412,0.054,0.751-0.009,0.988-0.188
	c0.184-0.14,0.293-0.341,0.328-0.597c0.006-0.05,0.009-0.099,0.009-0.146C44.705,74.787,44.356,74.464,43.72,74.379z M88.203,73.212
	c-0.364-0.242-0.776-0.316-1.226-0.223c-0.445,0.084-0.797,0.313-1.042,0.678c-0.344,0.511-0.451,1.275-0.289,2.088
	c0.225,1.109,0.958,2.309,2.293,2.039c0.463-0.089,0.824-0.321,1.064-0.685c0.331-0.503,0.433-1.265,0.27-2.082
	C89.111,74.218,88.718,73.555,88.203,73.212z M92.468,71.874c0,0-0.655,0.164-0.727,0.179c0.022,0.079,0.429,1.726,0.451,1.799
	c0.105-0.021,0.635-0.157,0.635-0.157c0.623-0.154,0.964-0.504,0.964-0.966c0-0.079-0.009-0.163-0.03-0.25
	C93.624,71.925,93.15,71.705,92.468,71.874z M33.54,13.799c-0.034,0.209-0.481,3.039-0.501,3.147
	c0.109-0.022,2.02-0.385,2.128-0.408C35.11,16.446,33.649,13.982,33.54,13.799z"/>
<g>
	<path fill="#FFFFFF" d="M145.963,35.499h-8.393v-3.401h20.653v3.401h-8.393v23.596h-3.868V35.499z"/>
	<path fill="#FFFFFF" d="M162.363,32.098h3.868v11.293h12.919V32.098h3.868v26.997h-3.868V46.794h-12.919v12.301h-3.868V32.098z"/>
	<path fill="#FFFFFF" d="M190.367,32.098h15.123v3.401h-11.253v7.893h10.25v3.402h-10.25v8.899h11.253v3.402h-15.123V32.098z"/>
	<path fill="#FFFFFF" d="M241.23,36.545c-1.701-1.006-3.596-1.509-5.569-1.509c-6.229,0-10.365,4.49-10.365,10.563
		c0,6.345,4.563,10.559,10.17,10.559c1.936,0,4.527-0.502,5.88-1.316l0.233,3.753c-2.051,0.852-4.565,0.965-6.151,0.965
		c-8.549,0-14.233-5.491-14.233-14.078c0-8.314,6.034-13.848,14.271-13.848c2.09,0,4.139,0.308,6.074,1.161L241.23,36.545z"/>
	<path fill="#FFFFFF" d="M254.848,32.098h4.06l11.41,26.997h-4.215l-2.746-6.809h-13.229l-2.748,6.809h-4.062L254.848,32.098z
		 M256.742,35.732l-5.376,13.386h10.751L256.742,35.732z"/>
	<path fill="#FFFFFF" d="M276.815,35.499h-8.394v-3.401h20.655v3.401h-8.394v23.596h-3.868V35.499z"/>
	<path fill="#FFFFFF" d="M293.218,32.098h3.868v11.293h12.918V32.098h3.868v26.997h-3.868V46.794h-12.918v12.301h-3.868V32.098z"/>
	<path fill="#FFFFFF" d="M332.63,31.634c8.2,0,12.999,5.955,12.999,13.965c0,8.199-4.759,13.961-12.999,13.961
		s-12.997-5.762-12.997-13.961C319.634,37.589,324.429,31.634,332.63,31.634z M332.63,56.157c6.226,0,8.896-5.182,8.896-10.559
		c0-5.495-2.939-10.601-8.896-10.563c-5.958-0.038-8.896,5.067-8.896,10.563C323.734,50.975,326.404,56.157,332.63,56.157z"/>
	<path fill="#FFFFFF" d="M351.159,32.098h3.867v23.595h11.296v3.402h-15.163V32.098z"/>
	<path fill="#FFFFFF" d="M370.615,32.098h3.867v26.997h-3.867V32.098z"/>
	<path fill="#FFFFFF" d="M400.087,36.545c-1.703-1.006-3.597-1.509-5.57-1.509c-6.226,0-10.364,4.49-10.364,10.563
		c0,6.345,4.564,10.559,10.172,10.559c1.933,0,4.523-0.502,5.879-1.316l0.231,3.753c-2.052,0.852-4.564,0.965-6.15,0.965
		c-8.55,0-14.234-5.491-14.234-14.078c0-8.314,6.034-13.848,14.274-13.848c2.088,0,4.139,0.308,6.072,1.161L400.087,36.545z"/>
	<path fill="#FFFFFF" d="M436.987,47.918c0,7.581-3.829,11.641-10.482,11.641c-6.649,0-10.482-4.06-10.482-11.641v-15.82h3.871
		v15.319c0,5.181,1.621,8.74,6.611,8.74c4.992,0,6.615-3.559,6.615-8.74V32.098h3.867V47.918z"/>
	<path fill="#FFFFFF" d="M443.95,32.098h5.263l11.909,21.738h0.078V32.098h3.87v26.997h-4.953l-12.221-22.202h-0.08v22.202h-3.866
		V32.098z"/>
	<path fill="#FFFFFF" d="M471.991,32.098h3.871v26.997h-3.871V32.098z"/>
	<path fill="#FFFFFF" d="M494.619,59.095h-4.832l-10.176-26.997h4.331l8.319,23.595h0.074l8.548-23.595h4.063L494.619,59.095z"/>
	<path fill="#FFFFFF" d="M508.894,32.098h15.121v3.401h-11.256v7.893h10.251v3.402h-10.251v8.899h11.256v3.402h-15.121V32.098z"/>
	<path fill="#FFFFFF" d="M530.049,32.098h6.614c5.341,0,10.484,0.848,10.484,7.306c0,3.292-2.437,5.611-5.571,6.157v0.078
		c1.2,0.463,1.779,1.042,2.632,2.705l5.105,10.752h-4.411l-4.139-9.357c-1.197-2.632-2.473-2.632-4.524-2.632h-2.322v11.989h-3.868
		V32.098z M533.917,43.704h3.288c3.675,0,5.843-1.628,5.843-4.217c0-2.437-1.856-3.988-5.417-3.988h-3.714V43.704z"/>
	<path fill="#FFFFFF" d="M566.255,36.161c-1.973-0.773-3.058-1.125-5.07-1.125c-2.166,0-4.718,0.776-4.718,3.6
		c0,5.185,11.605,3.985,11.605,12.879c0,5.763-4.449,8.045-9.859,8.045c-1.902,0-3.759-0.542-5.535-1.119l0.386-3.6
		c1.313,0.541,3.636,1.316,5.612,1.316c2.2,0,5.295-1.238,5.295-4.409c0-6.037-11.603-4.371-11.603-12.764
		c0-4.796,3.787-7.351,8.667-7.351c1.774,0,3.903,0.308,5.761,0.968L566.255,36.161z"/>
	<path fill="#FFFFFF" d="M573.411,32.098h3.869v26.997h-3.869V32.098z"/>
	<path fill="#FFFFFF" d="M589.617,35.499h-8.394v-3.401h20.656v3.401h-8.396v23.596h-3.867V35.499z"/>
	<path fill="#FFFFFF" d="M613.364,47.798l-10.56-15.7h4.527l8.046,12.106l7.848-12.106h4.527l-10.518,15.7v11.297h-3.871V47.798z"/>
	<path fill="#FFFFFF" d="M654.134,31.634c8.198,0,12.998,5.955,12.998,13.965c0,8.199-4.756,13.961-12.998,13.961
		c-8.237,0-12.996-5.762-12.996-13.961C641.138,37.589,645.935,31.634,654.134,31.634z M654.134,56.157
		c6.228,0,8.896-5.182,8.896-10.559c0-5.495-2.939-10.601-8.896-10.563c-5.957-0.038-8.896,5.067-8.896,10.563
		C645.238,50.975,647.904,56.157,654.134,56.157z"/>
	<path fill="#FFFFFF" d="M672.465,32.098h14.353v3.401h-10.479v7.893h10.015v3.402h-10.015v12.301h-3.873V32.098z"/>
	<path fill="#FFFFFF" d="M703.14,32.098h3.869v11.874l11.523-11.874h5.146l-12.687,12.763l13.697,14.234h-5.653l-12.027-13.228
		v13.228h-3.869V32.098z"/>
	<path fill="#FFFFFF" d="M740.429,31.634c8.197,0,12.994,5.955,12.994,13.965c0,8.199-4.758,13.961-12.994,13.961
		c-8.237,0-12.999-5.762-12.999-13.961C727.43,37.589,732.229,31.634,740.429,31.634z M740.429,56.157
		c6.229,0,8.897-5.182,8.897-10.559c0-5.495-2.941-10.601-8.897-10.563c-5.956-0.038-8.899,5.067-8.899,10.563
		C731.529,50.975,734.201,56.157,740.429,56.157z"/>
	<path fill="#FFFFFF" d="M758.764,32.098h6.61c5.342,0,10.487,0.848,10.487,7.306c0,3.292-2.439,5.611-5.568,6.157v0.078
		c1.194,0.463,1.774,1.042,2.625,2.705l5.105,10.752h-4.407l-4.138-9.357c-1.201-2.632-2.477-2.632-4.528-2.632h-2.32v11.989h-3.866
		V32.098z M762.63,43.704h3.286c3.675,0,5.843-1.628,5.843-4.217c0-2.437-1.856-3.988-5.417-3.988h-3.712V43.704z"/>
	<path fill="#FFFFFF" d="M782.899,32.098h15.123v3.401h-11.254v7.893h10.247v3.402h-10.247v8.899h11.254v3.402h-15.123V32.098z"/>
	<path fill="#FFFFFF" d="M812.836,32.098h4.063l11.407,26.997h-4.215l-2.745-6.809h-13.229l-2.748,6.809h-4.059L812.836,32.098z
		 M814.731,35.732l-5.377,13.386h10.753L814.731,35.732z"/>
</g>
</svg>
