<?xml version="1.0" encoding="utf-8"?>
<!-- Generator: Adobe Illustrator 16.0.0, SVG Export Plug-In . SVG Version: 6.00 Build 0)  -->
<!DOCTYPE svg PUBLIC "-//W3C//DTD SVG 1.1//EN" "http://www.w3.org/Graphics/SVG/1.1/DTD/svg11.dtd">
<svg version="1.1" id="레이어_1" xmlns="http://www.w3.org/2000/svg" xmlns:xlink="http://www.w3.org/1999/xlink" x="0px"
	 y="0px" width="835.891px" height="91px" viewBox="0 0 835.891 91" enable-background="new 0 0 835.891 91" xml:space="preserve">
<path fill="#FFFFFF" d="M112.654,17.089c-15.596-6.547-34.309-9.865-51.332-9.865c-17.022,0-35.735,3.318-51.333,9.865
	c-1.018,0.501-1.508,0.951-1.508,2.103v52.824c0,1.152,0.49,1.602,1.508,2.104c15.597,6.548,34.31,9.868,51.333,9.868
	s35.736-3.32,51.332-9.868c1.017-0.503,1.51-0.951,1.51-2.104V19.192C114.164,18.04,113.67,17.59,112.654,17.089z M97.258,17.929
	c0.517-1.878,2.102-2.851,3.848-2.37c0.479,0.136,0.868,0.335,1.185,0.62l0.022,0.017l-0.334,0.93l-0.046-0.054
	c-0.28-0.318-0.628-0.534-1.026-0.647c-0.556-0.15-1.097-0.092-1.568,0.177c-0.554,0.313-0.964,0.881-1.167,1.61
	c-0.203,0.721-0.14,1.427,0.174,1.985c0.269,0.465,0.695,0.801,1.214,0.945c0.355,0.099,0.921,0.146,1.263,0.035l0.068-0.026
	l-0.214,0.966l-0.025,0.007c-0.367,0.061-0.804,0.017-1.339-0.13C97.517,21.495,96.708,19.902,97.258,17.929z M89.79,12.996
	l0.013-0.038l0.888,0.176l-1.274,6.332l-0.888-0.175L89.79,12.996z M79.3,11.313l0.007-0.04l0.896,0.121
	c0,0-0.719,5.441-0.728,5.522c0.081,0.008,2.381,0.314,2.381,0.314l-0.116,0.878l-3.279-0.434L79.3,11.313z M65.956,13.46
	c0.053-1.08,0.432-1.979,1.06-2.549c0.509-0.458,1.169-0.683,1.909-0.644c1.675,0.086,2.732,1.485,2.63,3.479
	c-0.057,1.089-0.431,1.994-1.048,2.553c-0.507,0.457-1.176,0.677-1.925,0.638c-0.755-0.039-1.394-0.326-1.853-0.834
	C66.17,15.484,65.896,14.544,65.956,13.46z M54.828,10.302c0,0,0.086,2.587,0.088,2.667c0.082,0,2.579-0.084,2.662-0.088
	c-0.004-0.082-0.087-2.667-0.087-2.667l0.861-0.028l0.042-0.002l0.214,6.456l-0.905,0.032c0,0-0.093-2.822-0.096-2.904
	c-0.08,0.004-2.582,0.087-2.664,0.088c0.003,0.082,0.099,2.903,0.099,2.903l-0.902,0.032l-0.218-6.455L54.828,10.302z
	 M53.107,19.229c2.894-0.171,5.679-0.258,8.237-0.258c12.24,0,29.633,1.968,40.37,5.77H53.107V19.229z M53.107,27.686h51.123
	c0.006,0.122,0.012,0.241,0.016,0.349v1.457h-45.55v12.457h20.966v1.803H53.107V27.686z M61.642,39.001v-1.808h42.604v1.808H61.642z
	 M104.246,41.948v1.803H82.605v-1.803H104.246z M61.642,34.246v-1.807h42.604v1.807H61.642z M79.662,46.7v11.312h-36.3v-1.805H73.36
	v-7.702H43.362V24.713H21.04c7.739-2.726,18.91-4.503,29.119-5.284V46.7H79.662z M46.583,10.871l0.044-0.004l0.099,0.878
	c0,0-1.691,0.195-1.771,0.204c0.009,0.08,0.625,5.534,0.625,5.534l-0.902,0.103c0,0-0.613-5.457-0.62-5.538
	c-0.083,0.008-1.775,0.201-1.775,0.201l-0.1-0.883L46.583,10.871z M32.923,12.877l0.878-0.167l0.029-0.008l3.625,5.88l-0.963,0.187
	c0,0-0.85-1.42-0.88-1.468c-0.055,0.012-2.65,0.509-2.706,0.517c-0.006,0.057-0.27,1.69-0.27,1.69l-0.935,0.179L32.923,12.877z
	 M20.71,16.59c0.383-0.688,1.021-1.17,1.832-1.402c0.477-0.133,0.914-0.162,1.336-0.084l0.025,0.004l0.196,0.971l-0.066-0.022
	c-0.401-0.129-0.809-0.137-1.213-0.024c-0.554,0.157-0.983,0.489-1.249,0.96c-0.313,0.555-0.371,1.257-0.165,1.986
	c0.384,1.368,1.523,2.116,2.707,1.785c0.354-0.102,0.866-0.356,1.094-0.624l0.046-0.055l0.322,0.937l-0.02,0.018
	c-0.28,0.237-0.69,0.436-1.218,0.583c-0.822,0.229-1.612,0.155-2.281-0.218c-0.75-0.42-1.29-1.18-1.577-2.194
	C20.21,18.259,20.296,17.331,20.71,16.59z M18.445,28.034c0.002-0.116,0.005-0.242,0.015-0.373h21.955v20.844h-21.97V28.034z
	 M18.445,51.454h51.969v1.808h-30v7.7h42.19V46.7h21.641v15.063c-0.012,0.604-0.088,1.534-0.506,2.078
	c-0.345,0.455-0.822,0.736-1.139,0.891c-5.358,2.012-12.563,3.535-19.995,4.56v-6.526H18.536c-0.063-0.356-0.085-0.716-0.091-1
	V51.454z M79.662,65.712v3.951c-6.43,0.771-12.881,1.157-18.316,1.157c-11.506,0-27.541-1.742-38.367-5.108H79.662L79.662,65.712z
	 M18.068,74.083c-0.607-0.206-1.039-0.563-1.277-1.049c-0.297-0.609-0.286-1.39,0.038-2.325l1.212-3.534l0.013-0.04l0.858,0.293
	l-1.188,3.465c-0.27,0.774-0.302,1.351-0.104,1.758c0.137,0.279,0.377,0.47,0.738,0.597c0.351,0.119,0.667,0.114,0.944-0.019
	c0.403-0.201,0.731-0.674,1.001-1.453l1.188-3.459l0.854,0.295l-1.226,3.57C20.541,73.885,19.453,74.563,18.068,74.083z
	 M25.242,76.214c0,0-0.966-5.397-1.01-5.647c-0.077,0.254-1.436,4.938-1.436,4.938l-0.867-0.253l1.79-6.163l0.008-0.038l1.139,0.329
	c0,0,0.938,5.254,0.98,5.52c0.075-0.265,1.402-4.828,1.402-4.828l0.868,0.254l-1.798,6.203L25.242,76.214z M28.993,77.202
	l-0.878-0.222l1.578-6.225l0.008-0.037l0.877,0.221L28.993,77.202z M32.21,77.961l-0.755-6.719l-0.004-0.061l0.983,0.215
	c0,0,0.513,5.556,0.536,5.752c0.097-0.17,2.925-4.994,2.925-4.994l0.93,0.205l-3.551,5.834L32.21,77.961z M40.794,73.949
	c0,0-2.277-0.401-2.355-0.413c-0.016,0.075-0.299,1.676-0.312,1.752c0.083,0.015,2.146,0.378,2.146,0.378l-0.152,0.873
	c0,0-2.063-0.361-2.143-0.375c-0.018,0.074-0.338,1.908-0.354,1.984c0.079,0.015,2.354,0.416,2.354,0.416l-0.152,0.873l-3.249-0.57
	l1.113-6.324l0.009-0.038l3.246,0.572L40.794,73.949z M45.646,75.527c-0.098,0.724-0.638,1.229-1.336,1.298
	c0.207,0.146,0.313,0.312,0.428,0.692l0.752,2.724l-1.021-0.138l-0.577-2.338c-0.163-0.623-0.402-0.654-0.836-0.711
	c0,0-0.376-0.055-0.447-0.064c-0.011,0.08-0.384,2.807-0.384,2.807l-0.895-0.124l0.865-6.356l0.007-0.039l1.435,0.193
	c0.651,0.092,1.367,0.248,1.754,0.758c0.188,0.244,0.282,0.556,0.282,0.931C45.673,75.275,45.664,75.396,45.646,75.527z
	 M48.633,76.688c0.658,0.445,1.413,0.949,1.289,2.16c-0.121,1.229-0.968,1.854-2.316,1.719c-0.416-0.039-0.801-0.211-1.16-0.383
	l-0.024-0.015l0.182-0.927l0.05,0.027c0.152,0.092,0.675,0.379,1.136,0.424c0.245,0.027,0.589-0.023,0.851-0.238
	c0.192-0.16,0.303-0.375,0.332-0.646c0.063-0.623-0.396-0.932-0.938-1.281c-0.624-0.411-1.327-0.873-1.215-1.963
	c0.104-1.076,0.91-1.695,2.046-1.586c0.413,0.043,0.853,0.172,1.211,0.354l0.029,0.017l-0.217,0.91l-0.048-0.025
	c-0.397-0.225-0.617-0.326-1.026-0.368c-0.19-0.019-0.538-0.019-0.78,0.179c-0.155,0.121-0.237,0.301-0.259,0.529
	C47.719,76.08,48.143,76.361,48.633,76.688z M52.015,80.84l-0.899-0.066l0.468-6.398l0.001-0.041l0.906,0.066L52.015,80.84z
	 M57.925,75.57c0,0-1.701-0.079-1.78-0.079c-0.008,0.079-0.25,5.565-0.25,5.565l-0.902-0.043c0,0,0.244-5.484,0.249-5.563
	c-0.079-0.007-1.786-0.08-1.786-0.08l0.039-0.845l0.003-0.043l4.469,0.201L57.925,75.57z M64.013,74.783c0,0-2.229,3.688-2.233,3.68
	l-0.008,2.71h-0.906c0,0,0.006-2.674,0.006-2.7c-0.009-0.018-2.229-3.701-2.229-3.701l-0.041-0.063l1.059,0.003
	c0,0,1.614,2.706,1.678,2.823c0.071-0.119,1.652-2.818,1.652-2.818l1.06,0.005L64.013,74.783z M71.554,80.191
	c-0.454,0.512-1.091,0.804-1.845,0.849c-1.703,0.104-2.874-1.142-2.996-3.167c-0.117-1.993,0.926-3.4,2.6-3.5
	c1.675-0.098,2.881,1.176,2.999,3.168C72.378,78.625,72.106,79.568,71.554,80.191z M74.78,80.531l-0.902,0.093l-0.646-6.427
	l3.075-0.313l0.038-0.004l0.089,0.883c0,0-2.138,0.219-2.213,0.225c0.005,0.078,0.171,1.695,0.179,1.773
	c0.079-0.008,2.116-0.215,2.116-0.215l0.087,0.885c0,0-2.035,0.205-2.116,0.211C74.496,77.723,74.78,80.531,74.78,80.531z
	 M85,79.165c0,0-1.185,0.185-1.22,0.174c0,0-2.754-2.469-2.918-2.614c0.037,0.213,0.471,3.012,0.471,3.012l-0.895,0.142l-0.99-6.383
	l0.891-0.138c0,0,0.389,2.496,0.419,2.701c0.288-0.455,1.933-3.057,1.962-3.076l1.079-0.166l0.093-0.016c0,0-2.194,3.383-2.23,3.438
	c0.055,0.051,3.436,2.914,3.436,2.914L85,79.165z M88.115,78.668c-1.668,0.333-3.004-0.736-3.403-2.725
	c-0.391-1.959,0.447-3.496,2.09-3.827c1.646-0.328,3.015,0.767,3.409,2.727C90.605,76.83,89.785,78.332,88.115,78.668z
	 M95.285,76.916l-1.403-1.954c-0.38-0.522-0.615-0.462-1.041-0.358c0,0-0.374,0.094-0.437,0.111c0.02,0.077,0.68,2.747,0.68,2.747
	L92.21,77.68l-1.563-6.269l1.409-0.347c0.638-0.16,1.365-0.277,1.907,0.052c0.352,0.211,0.584,0.575,0.722,1.114
	c0.031,0.137,0.047,0.27,0.047,0.396c0,0.556-0.299,1.042-0.804,1.306c0.238,0.053,0.399,0.174,0.65,0.482l1.701,2.255
	L95.285,76.916z M97.527,76.318l-1.802-6.203l3.126-0.908l0.042-0.012l0.246,0.85c0,0-2.221,0.646-2.295,0.669
	c0.019,0.076,0.472,1.636,0.493,1.71c0.076-0.021,2.093-0.607,2.093-0.607l0.25,0.853c0,0-2.019,0.586-2.095,0.608
	c0.021,0.072,0.541,1.859,0.563,1.936c0.08-0.02,2.296-0.665,2.296-0.665l0.249,0.849L97.527,76.318z M106.133,73.611
	c0,0-1.03-1.297-1.067-1.34c-0.051,0.02-2.559,0.862-2.609,0.883c-0.004,0.056-0.038,1.707-0.038,1.707l-0.902,0.306l0.288-6.911
	l0.847-0.287l0.028-0.01l4.39,5.338L106.133,73.611z M68.625,16.051c0.472,0.027,0.876-0.113,1.201-0.407
	c0.449-0.406,0.73-1.115,0.773-1.948c0.041-0.826-0.172-1.563-0.593-2.022c-0.292-0.325-0.675-0.499-1.128-0.522
	c-0.455-0.025-0.85,0.111-1.176,0.403c-0.462,0.413-0.758,1.124-0.794,1.954C66.846,14.64,67.263,15.981,68.625,16.051z
	 M102.47,72.271c0.101-0.033,1.947-0.66,2.05-0.692c-0.07-0.087-1.852-2.328-1.983-2.493
	C102.532,69.295,102.47,72.163,102.47,72.271z M116.76,16.006c-0.503-0.768-1.219-1.21-1.623-1.411
	c-15.813-6.81-35.492-10.6-53.805-10.6c-18.317,0-37.996,3.791-53.811,10.601c-0.401,0.201-1.114,0.643-1.622,1.411
	c-0.547,0.83-0.651,2.253-0.664,3.166v52.854c0.013,0.914,0.117,2.334,0.664,3.168c0.457,0.693,1.093,1.125,1.507,1.352
	c15.846,6.844,35.564,10.652,53.926,10.652c18.355,0,38.076-3.811,53.917-10.653c0.416-0.228,1.052-0.657,1.511-1.353
	c0.549-0.832,0.651-2.252,0.663-3.168V19.172C117.411,18.259,117.308,16.836,116.76,16.006z M115.276,72.053
	c0,1.118-0.125,1.416-0.297,1.807c-0.242,0.574-0.919,0.929-0.919,0.929c-15.651,6.901-35.193,10.334-52.729,10.334
	c-17.538,0-37.08-3.433-52.732-10.334c0,0-0.678-0.354-0.92-0.929c-0.171-0.391-0.301-0.688-0.301-1.807V19.207
	c0-1.118,0.13-1.417,0.301-1.809c0.242-0.575,0.92-0.929,0.92-0.929C24.252,9.57,43.793,6.134,61.332,6.134
	c17.535,0,37.077,3.436,52.729,10.335c0,0,0.678,0.354,0.919,0.929c0.172,0.392,0.297,0.69,0.297,1.809V72.053z M70.549,75.65
	c-0.327-0.291-0.725-0.422-1.184-0.389c-0.456,0.021-0.83,0.198-1.125,0.524c-0.414,0.464-0.625,1.202-0.575,2.028
	c0.05,0.832,0.338,1.545,0.791,1.942c0.325,0.292,0.733,0.427,1.201,0.396c0.47-0.026,0.856-0.207,1.146-0.533
	c0.403-0.455,0.606-1.189,0.558-2.021C71.309,76.768,71.016,76.061,70.549,75.65z M43.72,74.379c0,0-0.67-0.093-0.743-0.102
	c-0.01,0.072-0.238,1.759-0.249,1.836c0.074,0.01,0.651,0.089,0.651,0.089c0.412,0.054,0.751-0.009,0.988-0.188
	c0.184-0.14,0.293-0.341,0.328-0.597c0.006-0.05,0.009-0.099,0.009-0.146C44.705,74.787,44.356,74.464,43.72,74.379z M88.203,73.212
	c-0.364-0.241-0.775-0.315-1.226-0.224c-0.445,0.084-0.797,0.314-1.042,0.679c-0.345,0.511-0.451,1.274-0.289,2.088
	c0.225,1.108,0.958,2.31,2.293,2.039c0.463-0.089,0.824-0.321,1.063-0.685c0.331-0.504,0.434-1.266,0.271-2.082
	C89.111,74.219,88.718,73.555,88.203,73.212z M92.468,71.874c0,0-0.654,0.164-0.727,0.179c0.022,0.079,0.429,1.727,0.451,1.799
	c0.104-0.021,0.635-0.156,0.635-0.156c0.623-0.154,0.964-0.504,0.964-0.967c0-0.078-0.009-0.162-0.029-0.25
	C93.624,71.925,93.15,71.705,92.468,71.874z M33.54,13.799c-0.034,0.209-0.48,3.039-0.501,3.147
	c0.109-0.022,2.021-0.385,2.128-0.408C35.11,16.446,33.649,13.982,33.54,13.799z"/>
<g>
	<path fill="#FFFFFF" d="M145.963,35.499h-8.393v-3.401h20.653v3.401h-8.394v23.597h-3.868L145.963,35.499L145.963,35.499z"/>
	<path fill="#FFFFFF" d="M162.363,32.098h3.868v11.293h12.919V32.098h3.868v26.998h-3.868V46.794h-12.919v12.302h-3.868V32.098z"/>
	<path fill="#FFFFFF" d="M190.367,32.098h15.123v3.401h-11.253v7.893h10.25v3.402h-10.25v8.899h11.253v3.402h-15.123V32.098z"/>
	<path fill="#FFFFFF" d="M241.23,36.545c-1.701-1.006-3.597-1.509-5.569-1.509c-6.229,0-10.365,4.49-10.365,10.563
		c0,6.344,4.563,10.559,10.17,10.559c1.937,0,4.527-0.502,5.881-1.316l0.232,3.754c-2.051,0.852-4.564,0.965-6.15,0.965
		c-8.55,0-14.233-5.492-14.233-14.079c0-8.314,6.034-13.848,14.271-13.848c2.091,0,4.14,0.308,6.074,1.161L241.23,36.545z"/>
	<path fill="#FFFFFF" d="M254.848,32.098h4.06l11.41,26.998h-4.215l-2.746-6.81h-13.229l-2.748,6.81h-4.062L254.848,32.098z
		 M256.742,35.732l-5.376,13.386h10.751L256.742,35.732z"/>
	<path fill="#FFFFFF" d="M276.815,35.499h-8.395v-3.401h20.655v3.401h-8.394v23.597h-3.868L276.815,35.499L276.815,35.499z"/>
	<path fill="#FFFFFF" d="M293.218,32.098h3.868v11.293h12.918V32.098h3.868v26.998h-3.868V46.794h-12.918v12.302h-3.868V32.098z"/>
	<path fill="#FFFFFF" d="M332.63,31.634c8.2,0,12.999,5.955,12.999,13.965c0,8.199-4.759,13.961-12.999,13.961
		c-8.239,0-12.997-5.763-12.997-13.961C319.634,37.589,324.429,31.634,332.63,31.634z M332.63,56.157
		c6.227,0,8.896-5.183,8.896-10.559c0-5.495-2.939-10.601-8.896-10.563c-5.958-0.038-8.896,5.067-8.896,10.563
		C323.734,50.975,326.404,56.157,332.63,56.157z"/>
	<path fill="#FFFFFF" d="M351.159,32.098h3.867v23.595h11.296v3.402h-15.163V32.098z"/>
	<path fill="#FFFFFF" d="M370.615,32.098h3.867v26.998h-3.867V32.098z"/>
	<path fill="#FFFFFF" d="M400.087,36.545c-1.703-1.006-3.597-1.509-5.569-1.509c-6.227,0-10.364,4.49-10.364,10.563
		c0,6.344,4.563,10.559,10.172,10.559c1.933,0,4.523-0.502,5.879-1.316l0.231,3.754c-2.053,0.852-4.564,0.965-6.15,0.965
		c-8.55,0-14.234-5.492-14.234-14.079c0-8.314,6.034-13.848,14.274-13.848c2.088,0,4.139,0.308,6.072,1.161L400.087,36.545z"/>
	<path fill="#FFFFFF" d="M436.987,47.918c0,7.581-3.829,11.641-10.481,11.641c-6.649,0-10.482-4.06-10.482-11.641v-15.82h3.871
		v15.319c0,5.181,1.621,8.739,6.611,8.739c4.991,0,6.614-3.559,6.614-8.739V32.098h3.867V47.918z"/>
	<path fill="#FFFFFF" d="M443.95,32.098h5.264l11.908,21.738h0.078V32.098h3.87v26.998h-4.953l-12.221-22.203h-0.08v22.203h-3.866
		V32.098z"/>
	<path fill="#FFFFFF" d="M471.991,32.098h3.871v26.998h-3.871V32.098z"/>
	<path fill="#FFFFFF" d="M494.619,59.096h-4.832l-10.176-26.998h4.331l8.319,23.595h0.074l8.548-23.595h4.063L494.619,59.096z"/>
	<path fill="#FFFFFF" d="M508.894,32.098h15.121v3.401H512.76v7.893h10.251v3.402H512.76v8.899h11.256v3.402h-15.121V32.098z"/>
	<path fill="#FFFFFF" d="M530.05,32.098h6.613c5.342,0,10.484,0.848,10.484,7.306c0,3.292-2.437,5.611-5.571,6.157v0.078
		c1.2,0.462,1.779,1.042,2.633,2.705l5.104,10.752h-4.411l-4.139-9.357c-1.197-2.631-2.473-2.631-4.524-2.631h-2.321v11.988h-3.868
		V32.098L530.05,32.098z M533.918,43.704h3.287c3.676,0,5.844-1.628,5.844-4.217c0-2.437-1.856-3.988-5.417-3.988h-3.714V43.704
		L533.918,43.704z"/>
	<path fill="#FFFFFF" d="M566.256,36.161c-1.974-0.773-3.059-1.125-5.07-1.125c-2.166,0-4.718,0.776-4.718,3.6
		c0,5.185,11.604,3.985,11.604,12.879c0,5.762-4.449,8.045-9.858,8.045c-1.902,0-3.76-0.543-5.535-1.119l0.386-3.601
		c1.313,0.541,3.636,1.315,5.612,1.315c2.2,0,5.295-1.237,5.295-4.408c0-6.037-11.604-4.371-11.604-12.764
		c0-4.796,3.787-7.351,8.667-7.351c1.774,0,3.903,0.308,5.762,0.968L566.256,36.161z"/>
	<path fill="#FFFFFF" d="M573.411,32.098h3.869v26.998h-3.869V32.098z"/>
	<path fill="#FFFFFF" d="M589.617,35.499h-8.394v-3.401h20.656v3.401h-8.396v23.597h-3.867L589.617,35.499L589.617,35.499z"/>
	<path fill="#FFFFFF" d="M613.364,47.798l-10.56-15.7h4.526l8.047,12.106l7.848-12.106h4.527l-10.519,15.7v11.298h-3.871
		L613.364,47.798L613.364,47.798z"/>
	<path fill="#FFFFFF" d="M654.135,31.634c8.197,0,12.998,5.955,12.998,13.965c0,8.199-4.756,13.961-12.998,13.961
		c-8.237,0-12.996-5.763-12.996-13.961C641.138,37.589,645.935,31.634,654.135,31.634z M654.135,56.157
		c6.228,0,8.896-5.183,8.896-10.559c0-5.495-2.938-10.601-8.896-10.563c-5.957-0.038-8.896,5.067-8.896,10.563
		C645.238,50.975,647.904,56.157,654.135,56.157z"/>
	<path fill="#FFFFFF" d="M672.466,32.098h14.353v3.401H676.34v7.893h10.015v3.402H676.34v12.302h-3.873L672.466,32.098
		L672.466,32.098z"/>
	<path fill="#FFFFFF" d="M703.14,32.098h3.869v11.874l11.522-11.874h5.146l-12.688,12.763l13.697,14.235h-5.653l-12.026-13.229
		v13.229h-3.869L703.14,32.098L703.14,32.098z"/>
	<path fill="#FFFFFF" d="M740.429,31.634c8.197,0,12.994,5.955,12.994,13.965c0,8.199-4.758,13.961-12.994,13.961
		c-8.237,0-12.999-5.763-12.999-13.961C727.43,37.589,732.229,31.634,740.429,31.634z M740.429,56.157
		c6.229,0,8.896-5.183,8.896-10.559c0-5.495-2.94-10.601-8.896-10.563c-5.956-0.038-8.899,5.067-8.899,10.563
		C731.529,50.975,734.201,56.157,740.429,56.157z"/>
	<path fill="#FFFFFF" d="M758.764,32.098h6.609c5.343,0,10.487,0.848,10.487,7.306c0,3.292-2.438,5.611-5.568,6.157v0.078
		c1.194,0.462,1.774,1.042,2.625,2.705l5.105,10.752h-4.407l-4.138-9.357c-1.201-2.631-2.477-2.631-4.528-2.631h-2.319v11.988
		h-3.866V32.098L758.764,32.098z M762.631,43.704h3.285c3.676,0,5.844-1.628,5.844-4.217c0-2.437-1.856-3.988-5.417-3.988h-3.712
		V43.704L762.631,43.704z"/>
	<path fill="#FFFFFF" d="M782.899,32.098h15.123v3.401h-11.254v7.893h10.247v3.402h-10.247v8.899h11.254v3.402h-15.123V32.098z"/>
	<path fill="#FFFFFF" d="M812.837,32.098h4.063l11.407,26.998h-4.215l-2.745-6.81h-13.229l-2.748,6.81h-4.059L812.837,32.098z
		 M814.731,35.732l-5.377,13.386h10.753L814.731,35.732z"/>
</g>
</svg>
