<?xml version="1.0" encoding="utf-8"?>
<!-- Generator: Adobe Illustrator 16.0.0, SVG Export Plug-In . SVG Version: 6.00 Build 0)  -->
<!DOCTYPE svg PUBLIC "-//W3C//DTD SVG 1.1//EN" "http://www.w3.org/Graphics/SVG/1.1/DTD/svg11.dtd">
<svg version="1.1" id="레이어_1" xmlns="http://www.w3.org/2000/svg" xmlns:xlink="http://www.w3.org/1999/xlink" x="0px"
	 y="0px" width="184.159px" height="29.633px" viewBox="0 0 184.159 29.633" enable-background="new 0 0 184.159 29.633"
	 xml:space="preserve">
<g>
	<g>
		<path fill="#004189" d="M29.632,8.679v12.276l-8.679,8.679H8.679L0,20.955V8.679L8.679,0h12.274v3.66H10.195l-6.536,6.536v9.244
			l6.536,6.535h9.243l6.536-6.535V5.603L29.632,8.679z"/>
		<path fill="#004189" d="M17.712,20.955V8.679L26.392,0h12.273l8.679,8.679v12.276l-8.679,8.679H26.392v-3.66H37.15l6.535-6.533
			v-9.245L37.15,3.66h-9.245l-6.535,6.535v13.837L17.712,20.955z"/>
	</g>
	<g>
		<path fill="#FFFFFF" d="M63.508,10.049c-0.538-0.307-1.442-0.877-3.055-0.877c-2.367,0-3.874,1.953-3.874,5.049
			c0,2.987,1.7,5.006,3.938,5.006c1.721,0,2.732-0.659,3.076-0.813l0.129,3.207c-0.602,0.198-1.85,0.549-3.765,0.549
			c-4.109,0-6.993-3.141-6.993-7.991c0-5.621,3.702-7.862,6.756-7.862c2.238,0,3.378,0.505,3.959,0.748L63.508,10.049z"/>
		<path fill="#FFFFFF" d="M70.606,10.292c3.443,0,5.271,2.437,5.271,5.863c0,3.468-1.829,5.928-5.271,5.928
			c-3.442,0-5.271-2.459-5.271-5.928C65.335,12.728,67.164,10.292,70.606,10.292z M70.606,19.711c1.184,0,1.743-1.317,1.743-3.556
			c0-2.241-0.56-3.491-1.743-3.491c-1.184,0-1.743,1.25-1.743,3.491C68.864,18.394,69.423,19.711,70.606,19.711z"/>
		<path fill="#FFFFFF" d="M84.268,14.857c0-1.427-0.625-1.8-1.313-1.8c-1.096,0-1.484,0.967-1.484,2.438v6.412h-3.399v-9.047
			c0-1.096-0.021-1.799-0.086-2.392h3.099c0.043,0.505,0.086,1.142,0.086,1.911h0.042c0.517-1.252,1.377-2.086,3.163-2.086
			c2.475,0,3.292,1.844,3.292,4.127v7.488h-3.4L84.268,14.857L84.268,14.857z"/>
		<path fill="#FFFFFF" d="M96.338,14.857c0-1.427-0.624-1.8-1.313-1.8c-1.096,0-1.484,0.967-1.484,2.438v6.412h-3.399v-9.047
			c0-1.096-0.021-1.799-0.086-2.392h3.099c0.043,0.505,0.086,1.142,0.086,1.911h0.042c0.517-1.252,1.378-2.086,3.164-2.086
			c2.474,0,3.292,1.844,3.292,4.127v7.488h-3.4V14.857z"/>
		<path fill="#FFFFFF" d="M111.764,17.098h-6.606c0,1.362,0.861,2.613,2.776,2.613c1.161,0,2.324-0.438,3.162-0.9l0.065,2.613
			c-1.096,0.417-2.387,0.659-3.55,0.659c-3.937,0-5.68-2.438-5.68-5.928c0-3.075,1.765-5.863,4.971-5.863
			c1.011,0,4.863,0,4.863,5.973L111.764,17.098L111.764,17.098z M108.664,15.21c0-1.451-0.365-2.811-1.764-2.811
			c-1.743,0-1.743,2.196-1.743,2.811H108.664z"/>
		<path fill="#FFFFFF" d="M121.788,21.599c-0.989,0.263-2.001,0.483-3.076,0.483c-4.324,0-5.293-3.688-5.293-5.775
			c0-3.513,1.98-6.016,5.551-6.016c1.119,0,1.721,0.286,2.71,0.548l-0.171,2.613c-0.624-0.241-1.27-0.482-1.979-0.482
			c-2.582,0-2.582,2.898-2.582,3.337c0,2.415,1.464,3.184,2.754,3.184c0.711,0,1.356-0.263,1.979-0.505L121.788,21.599z"/>
		<path fill="#FFFFFF" d="M122.647,10.468h1.936v-2.35l3.314-1.075v3.425h2.194v2.437h-2.194v5.248c0,1.121,0.494,1.428,1.14,1.428
			c0.475,0,0.774-0.088,1.119-0.242v2.438c-0.345,0.131-1.27,0.308-2.367,0.308c-1.765,0-3.29-0.879-3.29-3.382v-5.797h-1.852
			V10.468z"/>
		<path fill="#FFFFFF" d="M132.781,11.016c0.881-0.286,2.387-0.724,3.614-0.724c3.938,0,4.841,1.67,4.841,4.215v4.172
			c0,1.69,0.021,2.458,0.087,3.227h-3.099l-0.086-1.581h-0.043c-0.151,0.702-1.463,1.757-3.077,1.757
			c-2.087,0-3.463-1.383-3.463-3.469c0-3.821,4.367-3.842,5.552-3.842h1.031c0-2.196-1.592-2.196-2.086-2.196
			c-0.861,0-1.786,0.198-3.121,1.01L132.781,11.016z M138.138,16.396c-1.354,0-3.486,0.088-3.486,1.998
			c0,1.493,1.186,1.493,1.463,1.493c0.302,0,2.022-0.044,2.022-2.832L138.138,16.396L138.138,16.396z"/>
		<path fill="#FFFFFF" d="M150.314,13.124h5.293v8.233c-0.797,0.374-2.561,0.813-4.97,0.813c-2.798,0-7.166-1.45-7.166-8.016
			c0-3.753,2.066-7.837,7.789-7.837c1.764,0,3.033,0.352,3.938,0.614l-0.217,3.008c-0.753-0.351-1.893-0.855-3.442-0.855
			c-3.722,0-4.452,3.491-4.452,5.226c0,2.855,1.29,5.094,3.98,5.094c0.516,0,0.925-0.068,1.226-0.221v-3.468h-1.979V13.124
			L150.314,13.124z"/>
		<path fill="#FFFFFF" d="M167.677,17.098h-6.605c0,1.362,0.861,2.613,2.775,2.613c1.163,0,2.324-0.438,3.164-0.9l0.063,2.613
			c-1.097,0.417-2.388,0.659-3.549,0.659c-3.938,0-5.682-2.438-5.682-5.928c0-3.075,1.765-5.863,4.971-5.863
			c1.011,0,4.863,0,4.863,5.973L167.677,17.098L167.677,17.098z M164.578,15.21c0-1.451-0.365-2.811-1.765-2.811
			c-1.742,0-1.742,2.196-1.742,2.811H164.578z"/>
		<path fill="#FFFFFF" d="M175.979,14.857c0-1.427-0.623-1.8-1.312-1.8c-1.097,0-1.485,0.967-1.485,2.438v6.412h-3.398v-9.047
			c0-1.096-0.021-1.799-0.087-2.392h3.099c0.043,0.505,0.087,1.142,0.087,1.911h0.042c0.516-1.252,1.377-2.086,3.163-2.086
			c2.475,0,3.292,1.844,3.292,4.127v7.488h-3.4V14.857L175.979,14.857z"/>
	</g>
	<g>
		<g>
			<path fill="#FFFFFF" d="M181.565,9.425h0.563c0.454,0,0.893,0.074,0.893,0.622c0,0.281-0.209,0.478-0.475,0.525v0.006
				c0.103,0.041,0.15,0.089,0.224,0.231l0.435,0.915h-0.375l-0.354-0.796c-0.101-0.224-0.21-0.224-0.384-0.224h-0.2v1.02h-0.326
				L181.565,9.425L181.565,9.425z M181.892,10.414h0.282c0.312,0,0.498-0.139,0.498-0.358c0-0.208-0.159-0.339-0.462-0.339h-0.318
				V10.414L181.892,10.414z"/>
		</g>
		<path fill="#FFFFFF" d="M182.297,12.417c-1.028,0-1.864-0.835-1.864-1.862c0-1.028,0.837-1.863,1.864-1.863
			c1.026,0,1.862,0.835,1.862,1.863S183.323,12.417,182.297,12.417z M182.297,8.955c-0.884,0-1.601,0.717-1.601,1.6
			c0,0.881,0.717,1.6,1.601,1.6c0.882,0,1.6-0.719,1.6-1.6C183.896,9.672,183.179,8.955,182.297,8.955z"/>
	</g>
</g>
</svg>
